# xmcd
#
# Track frame offsets:
#	150
#	21987
#	44694
#	70643
#	92846
#	107193
#	128764
#	150795
#	169036
#	191699
#	206404
#	232565
#
# Disc length: 3356 seconds
#
# Revision: 3911385368
# Processed by: cddbd v1.5.2PL0 Copyright (c) Steve Scherf et al.
# Submitted via: EZCDAudioConverter 8.0.2.1
#
DISCID=910d1a0c
DTITLE=Lam Trường - Vol 02. Chút Tình Thơ Ngây
DYEAR=2000
DGENRE=World Pop
TTITLE0=Lam Trường - Hãy quên sầu đi
TTITLE1=Lam Trường - Chợt nghe bước em về
TTITLE2=Lam Trường - Tình băng giá
TTITLE3=Lam Trường - Giọt sương mùa xuân
TTITLE4=Lam Trường - Em vô tình
TTITLE5=Lam Trường - Tình như giấc mộng tan
TTITLE6=Lam Trường, Mỹ Linh - Lỡ lầm
TTITLE7=Lam Trường - Chút Tình Thơ Ngây
TTITLE8=Lam Trường - Để trọn đời thương nhớ
TTITLE9=Lam Trường - Trinh trắng áo dài
TTITLE10=Lam Trường - Những giấc mơ dịu dàng
TTITLE11=Lam Trường - Lời trái tim muốn nói
EXTD=
EXTT0=
EXTT1=
EXTT2=
EXTT3=
EXTT4=
EXTT5=
EXTT6=
EXTT7=
EXTT8=
EXTT9=
EXTT10=
EXTT11=
PLAYORDER=
